<svg width="1200" height="630" viewBox="0 0 1200 630" fill="none" xmlns="http://www.w3.org/2000/svg">
  <!-- Background gradient -->
  <defs>
    <linearGradient id="bg-gradient" x1="0" y1="0" x2="1200" y2="630" gradientUnits="userSpaceOnUse">
      <stop offset="0%" stop-color="#0071E3"/>
      <stop offset="100%" stop-color="#00D4E3"/>
    </linearGradient>
    <linearGradient id="icon-gradient" x1="0" y1="0" x2="120" y2="120" gradientUnits="userSpaceOnUse">
      <stop offset="0%" stop-color="#ffffff"/>
      <stop offset="100%" stop-color="#f0f0f0"/>
    </linearGradient>
  </defs>

  <!-- Background -->
  <rect width="1200" height="630" fill="url(#bg-gradient)"/>

  <!-- Decorative circles -->
  <circle cx="100" cy="100" r="200" fill="white" fill-opacity="0.05"/>
  <circle cx="1100" cy="530" r="250" fill="white" fill-opacity="0.05"/>
  <circle cx="900" cy="100" r="150" fill="white" fill-opacity="0.03"/>

  <!-- App Icon -->
  <g transform="translate(540, 140)">
    <rect width="120" height="120" rx="27" fill="white" filter="drop-shadow(0 10px 30px rgba(0,0,0,0.2))"/>
    <rect x="24" y="20" width="64" height="80" rx="8" fill="#0071E3" fill-opacity="0.1"/>
    <path d="M36 36H84M36 48H72M36 60H60" stroke="#0071E3" stroke-width="5" stroke-linecap="round"/>
    <circle cx="96" cy="96" r="28" fill="#0071E3"/>
    <path d="M96 82V110M82 96H110" stroke="white" stroke-width="6" stroke-linecap="round"/>
  </g>

  <!-- App Name -->
  <text x="600" y="320" text-anchor="middle" font-family="system-ui, -apple-system, BlinkMacSystemFont, 'Segoe UI', Roboto, sans-serif" font-size="72" font-weight="700" fill="white">ScanLens</text>

  <!-- Tagline -->
  <text x="600" y="380" text-anchor="middle" font-family="system-ui, -apple-system, BlinkMacSystemFont, 'Segoe UI', Roboto, sans-serif" font-size="28" font-weight="500" fill="white" fill-opacity="0.9">Scan, Recognize, and Sign Documents Instantly</text>

  <!-- Features -->
  <g transform="translate(600, 440)" text-anchor="middle">
    <g transform="translate(-280, 0)">
      <rect x="-60" y="-20" width="120" height="40" rx="20" fill="white" fill-opacity="0.2"/>
      <text x="0" y="6" font-family="system-ui, -apple-system, sans-serif" font-size="16" font-weight="600" fill="white">PDF Scanner</text>
    </g>
    <g transform="translate(0, 0)">
      <rect x="-80" y="-20" width="160" height="40" rx="20" fill="white" fill-opacity="0.2"/>
      <text x="0" y="6" font-family="system-ui, -apple-system, sans-serif" font-size="16" font-weight="600" fill="white">OCR Recognition</text>
    </g>
    <g transform="translate(280, 0)">
      <rect x="-80" y="-20" width="160" height="40" rx="20" fill="white" fill-opacity="0.2"/>
      <text x="0" y="6" font-family="system-ui, -apple-system, sans-serif" font-size="16" font-weight="600" fill="white">Digital Signatures</text>
    </g>
  </g>

  <!-- Stats -->
  <g transform="translate(600, 540)" text-anchor="middle">
    <g transform="translate(-200, 0)">
      <text x="0" y="0" font-family="system-ui, -apple-system, sans-serif" font-size="32" font-weight="700" fill="white">4.9</text>
      <text x="0" y="24" font-family="system-ui, -apple-system, sans-serif" font-size="14" fill="white" fill-opacity="0.8">App Store Rating</text>
    </g>
    <g transform="translate(0, 0)">
      <text x="0" y="0" font-family="system-ui, -apple-system, sans-serif" font-size="32" font-weight="700" fill="white">2M+</text>
      <text x="0" y="24" font-family="system-ui, -apple-system, sans-serif" font-size="14" fill="white" fill-opacity="0.8">Documents Scanned</text>
    </g>
    <g transform="translate(200, 0)">
      <text x="0" y="0" font-family="system-ui, -apple-system, sans-serif" font-size="32" font-weight="700" fill="white">50+</text>
      <text x="0" y="24" font-family="system-ui, -apple-system, sans-serif" font-size="14" fill="white" fill-opacity="0.8">Languages OCR</text>
    </g>
  </g>

  <!-- Domain -->
  <text x="600" y="605" text-anchor="middle" font-family="system-ui, -apple-system, sans-serif" font-size="18" font-weight="500" fill="white" fill-opacity="0.7">scanlens.io</text>
</svg>
